<svg version="1.1" xmlns="http://www.w3.org/2000/svg" style="display: block;" viewBox="0 0 2048 2048" width="1024" height="1024" preserveAspectRatio="none">
<path transform="translate(0,0)" fill="rgb(242,141,37)" d="M 1356.94 681.458 C 1359.85 681.504 1359.95 681.686 1362.84 682.29 C 1365.41 684.606 1366.01 686.128 1367.48 689.37 C 1410.86 782.85 1417.84 889.142 1387.06 987.494 C 1380.9 1007.53 1372.34 1026.43 1364.63 1045.95 C 1336.53 1047.53 1301.63 1046.75 1273.01 1046.81 C 1302.33 996.328 1318.96 963.262 1324.29 903.031 L 1126.85 902.907 C 1128.13 936.518 1126.98 978.249 1127.06 1012.76 C 1117.86 1020.95 1058.82 1050.93 1050.15 1045.94 C 1052.77 1041.42 1055.16 1036.36 1057.64 1031.73 C 1067.01 1014.24 1077.91 997.792 1087.33 980.305 C 1079.14 980.039 1054.7 980.164 1047.07 981.053 L 1047.19 793.831 C 1047.23 756.728 1046.68 718.545 1047.47 681.574 C 1067.8 684.13 1114.34 700.734 1126.81 717.176 C 1127.99 751.669 1126.75 790.73 1127.13 825.85 C 1164.43 824.921 1203.91 825.517 1241.42 825.083 C 1267.52 824.781 1299.23 824.475 1324.98 825.584 C 1326.46 784.109 1296.26 716.708 1273.24 681.868 C 1288.35 683.531 1341.44 682.399 1356.94 681.458 z"/>
<path transform="translate(0,0)" fill="rgb(24,111,170)" d="M 836.776 660.449 C 839.23 660.472 841.685 660.507 844.139 660.555 C 888.389 661.435 939.135 682.041 969.88 714.073 C 977.171 705.461 987.329 696.189 996.202 689.23 C 999.727 701.496 999.414 711.925 1000.99 724.162 C 1004.66 752.812 1005.57 784.826 1013.91 812.369 C 996.651 807.904 898.503 795.506 890.123 789.648 C 891.086 784.978 906.984 771.873 911.754 766.505 L 912.533 765.611 C 852.476 706.01 749.946 740.694 724.702 817.809 C 714.734 849.017 717.508 882.901 732.422 912.071 C 747.071 940.131 772.154 961.317 802.27 971.065 C 827.579 978.997 866.967 976.941 889.535 962.756 C 894.99 959.327 905.829 954.722 907.748 948.38 C 906.346 942.81 891.276 930.499 885.915 924.919 C 888.132 922.792 997.987 910.796 1011.95 907.849 L 1011.37 909.529 C 1009.53 914.73 1008.79 918.452 1007.96 923.919 C 1003.96 950.413 997.809 976.516 993.8 1003.01 C 992.307 1012.88 990.755 1021.35 987.159 1030.67 C 980.911 1025.06 969.654 1011.94 964.403 1005.41 C 925.884 1031.97 894.215 1050.21 845.574 1052.17 C 790.907 1054.37 741.164 1032.68 701.124 996.449 C 623.941 926.608 621.827 794.485 694.678 720.967 C 733.384 681.515 782.062 661.786 836.776 660.449 z"/>
<path transform="translate(0,0)" fill="rgb(242,141,37)" d="M 1221.51 933.914 C 1229.12 933.43 1282.81 932.966 1286.35 935.097 C 1287.66 941.817 1282.25 953.434 1280.09 959.978 C 1266.04 1002.61 1242.5 1037.77 1211.82 1070 C 1217.16 1086.77 1227.23 1109.13 1230.93 1124.94 C 1225.52 1128.91 1214.62 1135.05 1208.41 1138.94 C 1195.81 1146.81 1183.05 1155.09 1170.36 1162.75 C 1157.44 1147.89 1143.83 1136.95 1130.85 1122.73 C 1115.37 1130.87 1091.51 1138.12 1074.12 1140.6 C 1068.03 1157.82 1064.77 1178.73 1060.6 1196.82 C 1037.48 1197.58 1011.3 1197.2 987.932 1197.43 C 983.592 1178.64 976.658 1159.04 972.974 1140.73 C 964.231 1139.49 956.129 1136.69 947.782 1133.92 C 940.64 1132.39 926.715 1126.92 918.418 1124.38 C 907.562 1133.33 887.5 1152.9 877.279 1162.99 C 863.809 1156.11 831.285 1133.24 816.471 1123.84 C 820.947 1110.77 825.689 1097.79 830.694 1084.91 C 836.017 1083.95 852.196 1083.78 859.541 1083.01 C 890.293 1079.8 908.449 1072.58 935.802 1060.28 C 946.429 1064.65 958.474 1068.43 969.445 1071.94 C 1073.78 1105.3 1189.8 1037.62 1221.51 933.914 z"/>
<path transform="translate(0,0)" fill="rgb(24,111,170)" d="M 1005.01 533.5 C 1017.7 532.514 1046.42 533.467 1060.34 533.582 C 1064.95 552.06 1068.96 571.56 1074.29 589.65 C 1091.84 593.552 1115.52 598.229 1130.49 607.555 C 1141.63 597.219 1159.99 576.321 1171.07 568.073 C 1190.38 577.809 1211.3 593.45 1229.77 604.97 C 1224.64 623.418 1216.04 641.951 1211.27 659.696 C 1249.86 701.466 1275.66 736.817 1287.3 793.946 C 1264.67 793.954 1244.3 794.383 1221.41 793.911 C 1214.45 770.965 1197.46 740.845 1181.32 722.942 C 1161.27 699.667 1136.52 680.901 1108.7 667.881 C 1058.91 644.153 1003.97 643.225 952.377 661.761 C 913.85 635.63 869.659 628.862 824.328 628.778 C 821.822 621.046 819.711 612.574 817.448 604.669 C 835.482 593.685 859.942 575.967 878.005 567.428 C 891.907 580.46 904.143 595.009 918.962 608.145 C 937.133 595.928 951.804 596.345 971.353 588.924 C 971.719 588.785 974.062 587.424 974.108 587.299 C 979.644 572.207 983.536 548.443 988.081 533.989 L 1005.01 533.5 z"/>
<path transform="translate(0,0)" fill="rgb(24,111,170)" d="M 1003.78 1299.14 C 1011.78 1300.4 1038.7 1299.63 1047.11 1299.11 C 1046.95 1323.42 1046.9 1347.74 1046.98 1372.06 C 1059.56 1361.11 1071.56 1355.01 1088.49 1354.13 C 1162.75 1350.25 1190.13 1444.48 1144.11 1494.3 C 1116.57 1521.39 1072.81 1522.08 1045.41 1494.33 C 1045.16 1500 1045.19 1506.22 1045.12 1511.93 C 1031.51 1511.6 1016.81 1511.9 1003.12 1511.93 C 1003.98 1440.93 1002.42 1370.27 1003.78 1299.14 z M 1090.77 1476.32 C 1137.75 1463.94 1130.75 1387.07 1078.97 1391.27 C 1031.22 1398.1 1037.02 1483.67 1090.77 1476.32 z"/>
<path transform="translate(0,0)" fill="rgb(24,111,170)" d="M 1591.95 1299.19 C 1606.35 1299.52 1621.23 1299.2 1635.67 1299.05 L 1635.96 1370.99 C 1645.74 1362.04 1658.05 1356.33 1671.2 1354.66 C 1734.61 1347.24 1768.08 1409 1750.14 1464.52 C 1746.33 1476.31 1741.35 1483.25 1733.62 1492.79 L 1732.75 1493.65 C 1705.6 1520.33 1660.28 1522.5 1633.06 1494.77 L 1633.06 1511.66 C 1619.51 1511.38 1605.31 1511.6 1591.71 1511.6 C 1593.53 1442.02 1591.28 1369.34 1591.95 1299.19 z M 1677.46 1476.9 C 1727 1466.39 1718.43 1387.65 1667.89 1391.16 C 1641.08 1398.6 1629.17 1422.09 1637 1448.5 C 1639.98 1458.91 1647.04 1467.68 1656.57 1472.82 C 1663.77 1476.62 1669.55 1477.41 1677.46 1476.9 z"/>
<path transform="translate(0,0)" fill="rgb(24,111,170)" d="M 1191.49 1309.08 C 1206.37 1309.67 1222.11 1309.35 1237.07 1309.26 L 1237.03 1388.8 C 1265.62 1388.07 1295.46 1388.98 1324.51 1388.46 C 1323.81 1363.26 1324.5 1334.64 1324.56 1309.13 C 1340.23 1310.04 1354.92 1309.3 1370.52 1309.6 C 1370.92 1319.16 1370.42 1331.23 1370.54 1341.22 C 1371.22 1398.45 1369.71 1454.74 1370.64 1512.01 L 1324.87 1511.8 C 1323.62 1487.99 1324.42 1452.31 1324.55 1428.04 C 1295.47 1427.71 1265.84 1427.99 1236.71 1427.98 C 1237.2 1455.72 1236.94 1484.23 1237.01 1512.03 L 1191.12 1511.91 C 1192.15 1481.3 1191.66 1449.19 1191.67 1418.45 C 1191.81 1381.99 1191.75 1345.54 1191.49 1309.08 z"/>
<path transform="translate(0,0)" fill="rgb(24,111,170)" d="M 559.24 1353.69 C 604.018 1345.86 646.632 1375.93 654.254 1420.74 C 661.876 1465.56 631.6 1508.02 586.748 1515.43 C 542.202 1522.78 500.087 1492.76 492.517 1448.25 C 484.946 1403.74 514.767 1361.48 559.24 1353.69 z M 567.886 1477.87 C 626.332 1479.8 624.32 1396.69 577.943 1390.48 C 573.893 1390.71 567.687 1390.86 563.936 1391.94 C 522.503 1403.76 524.458 1469.32 567.886 1477.87 z"/>
<path transform="translate(0,0)" fill="rgb(24,111,170)" d="M 893.014 1354.43 C 934.967 1352.37 969.614 1372.04 970.671 1417.65 C 971.398 1449.01 970.992 1480.35 970.987 1511.72 C 958.278 1511.23 943.517 1511.5 930.648 1511.43 L 930.042 1495.05 C 909.306 1513.18 892.473 1517.29 864.955 1512.82 C 850.983 1510.55 840.527 1502.3 832.789 1490.72 C 828.222 1482.32 825.763 1473.7 826.144 1464.11 C 828.114 1414.49 893.703 1418.01 927.552 1419.62 C 924.319 1401.75 917.993 1391.55 898.283 1389.6 C 879.892 1387.77 863.106 1393.39 847.742 1403.22 C 842.905 1393.9 838.019 1384.61 833.085 1375.35 C 852.915 1358.81 867.735 1356.77 893.014 1354.43 z M 901.468 1484.45 C 922.193 1476.01 927.289 1469.49 927.029 1446.95 C 916.936 1446.1 903.489 1446.03 893.252 1446.54 C 881.08 1447.26 867.4 1451.48 869.313 1466.79 C 870.016 1472.05 872.851 1476.78 877.151 1479.89 C 884.015 1484.95 893.282 1485.59 901.468 1484.45 z"/>
<path transform="translate(0,0)" fill="rgb(24,111,170)" d="M 385.618 1306.39 C 419.94 1304.09 456.936 1312.87 479.374 1340.77 C 470.397 1350.39 461.272 1359.87 452.001 1369.21 C 376.083 1295.51 301.857 1403.06 358.027 1459.03 C 369.612 1470.39 385.272 1476.62 401.492 1476.32 C 421.806 1476.14 435.287 1467.84 448.984 1453.72 L 450.06 1453.27 C 456.897 1455.15 474.891 1473.26 480.38 1478.82 C 463.569 1498.02 445.599 1509.4 420.055 1513.27 C 390.449 1517.76 358.102 1511.72 333.865 1493.7 C 313.253 1478.17 299.594 1455.14 295.853 1429.61 C 286.801 1367.01 322.04 1315.33 385.618 1306.39 z"/>
<path transform="translate(0,0)" fill="rgb(24,111,170)" d="M 1406.14 1356.95 L 1449.87 1357.02 L 1449.68 1415.18 C 1449.66 1427.48 1448.97 1439.01 1450.84 1451.45 C 1454.63 1476.75 1484.2 1483.92 1501.92 1468.09 C 1518.26 1453.49 1515.06 1422.62 1514.96 1402.28 C 1514.78 1387.2 1514.76 1372.12 1514.89 1357.04 C 1529.28 1357.17 1543.66 1357.17 1558.05 1357.05 C 1557.99 1377.2 1558.05 1397.35 1558.24 1417.5 C 1558.57 1448.92 1557.78 1480.59 1558.39 1511.94 L 1517.93 1511.76 L 1517.51 1493.33 C 1505.84 1505.3 1492.92 1512.79 1475.94 1513.95 C 1457.95 1515.18 1440.13 1512.27 1426.21 1500.02 C 1418.35 1493.15 1412.63 1484.17 1409.71 1474.15 C 1402.37 1449.18 1407.52 1386.38 1406.14 1356.95 z"/>
<path transform="translate(0,0)" fill="rgb(24,111,170)" d="M 757.968 1299.24 C 772.609 1299.68 786.346 1299.44 801.004 1299.15 C 800.924 1370.22 801.915 1440.81 801.036 1511.87 C 794.495 1510.89 765.192 1511.48 757.728 1511.52 C 759.73 1443.17 757.278 1368.43 757.968 1299.24 z"/>
<path transform="translate(0,0)" fill="rgb(24,111,170)" d="M 680.026 1299.03 C 695.279 1299.08 707.52 1299.94 723.067 1299.18 L 723.065 1448.31 C 723.074 1460.48 724.024 1501.97 722.644 1511.7 C 709.24 1511.03 693.391 1511.31 679.805 1511.22 L 680.026 1299.03 z"/>
</svg>